<mxfile host="app.diagrams.net" modified="2023-11-22T09:14:25.571Z" agent="Mozilla/5.0 (Macintosh; Intel Mac OS X 10_15_7) AppleWebKit/537.36 (KHTML, like Gecko) Chrome/108.0.0.0 Safari/537.36" version="22.1.3" etag="4a2WrEjrKVH6cZd9Im2G" type="github">
  <diagram name="페이지-1" id="2vPACEu5Lo6SJ6fLtF1c">
    <mxGraphModel>
      <root>
        <mxCell id="0" />
        <mxCell id="1" parent="0" />
      </root>
    </mxGraphModel>
  </diagram>
</mxfile>
